<svg width="100%" height="80" xmlns="http://www.w3.org/2000/svg" viewBox="0 0 1200 80" preserveAspectRatio="none">
  <defs>
    <linearGradient id="gradient3" x1="0%" y1="0%" x2="100%" y2="0%">
      <stop offset="0%" style="stop-color:#1d4ed8;stop-opacity:1"/>
      <stop offset="50%" style="stop-color:#1e3a8a;stop-opacity:1"/>
      <stop offset="100%" style="stop-color:#3b82f6;stop-opacity:1"/>
      <animateTransform
        attributeName="gradientTransform"
        type="translate"
        from="0 0"
        to="1 0"
        dur="3s"
        repeatCount="indefinite"/>
    </linearGradient>
  </defs>
  
  <!-- Wave Layer 1 (Back) -->
  <path d="M0,50 Q150,35 300,50 T600,50 T900,50 T1200,50 L1200,80 L0,80 Z" fill="url(#gradient3)" opacity="0.4">
    <animate attributeName="d" 
      values="M0,50 Q150,35 300,50 T600,50 T900,50 T1200,50 L1200,80 L0,80 Z;
              M0,50 Q150,65 300,50 T600,50 T900,50 T1200,50 L1200,80 L0,80 Z;
              M0,50 Q150,35 300,50 T600,50 T900,50 T1200,50 L1200,80 L0,80 Z"
      dur="7s"
      repeatCount="indefinite"/>
  </path>
  
  <!-- Wave Layer 2 (Middle) -->
  <path d="M0,45 Q120,28 240,45 T480,45 T720,45 T960,45 T1200,45 L1200,80 L0,80 Z" fill="url(#gradient3)" opacity="0.5">
    <animate attributeName="d" 
      values="M0,45 Q120,28 240,45 T480,45 T720,45 T960,45 T1200,45 L1200,80 L0,80 Z;
              M0,45 Q120,62 240,45 T480,45 T720,45 T960,45 T1200,45 L1200,80 L0,80 Z;
              M0,45 Q120,28 240,45 T480,45 T720,45 T960,45 T1200,45 L1200,80 L0,80 Z"
      dur="5.5s"
      repeatCount="indefinite"/>
  </path>
  
  <!-- Wave Layer 3 (Front) -->
  <path d="M0,40 Q150,20 300,40 T600,40 T900,40 T1200,40 L1200,80 L0,80 Z" fill="url(#gradient3)" opacity="0.8">
    <animate attributeName="d" 
      values="M0,40 Q150,20 300,40 T600,40 T900,40 T1200,40 L1200,80 L0,80 Z;
              M0,40 Q150,60 300,40 T600,40 T900,40 T1200,40 L1200,80 L0,80 Z;
              M0,40 Q150,20 300,40 T600,40 T900,40 T1200,40 L1200,80 L0,80 Z"
      dur="5s"
      repeatCount="indefinite"/>
  </path>
  
  <!-- Wave Layer 4 (Front-most, smaller waves) -->
  <path d="M0,35 Q100,25 200,35 T400,35 T600,35 T800,35 T1000,35 T1200,35 L1200,80 L0,80 Z" fill="url(#gradient3)" opacity="0.6">
    <animate attributeName="d" 
      values="M0,35 Q100,25 200,35 T400,35 T600,35 T800,35 T1000,35 T1200,35 L1200,80 L0,80 Z;
              M0,35 Q100,45 200,35 T400,35 T600,35 T800,35 T1000,35 T1200,35 L1200,80 L0,80 Z;
              M0,35 Q100,25 200,35 T400,35 T600,35 T800,35 T1000,35 T1200,35 L1200,80 L0,80 Z"
      dur="4s"
      repeatCount="indefinite"/>
  </path>
</svg>